<svg width="1498" height="659" viewBox="0 0 1498 659" fill="none" xmlns="http://www.w3.org/2000/svg">
<path d="M1358.51 47.677C1118.13 -11.7066 258.737 3.52333 80.4555 86.6481C1.04852 123.672 -3.57675 175.196 14.5029 316.737C49.3067 510.451 84.3711 598.231 212.009 620.69C442.155 661.186 1233.85 655.402 1350.83 619.376C1467.8 583.35 1472.73 500.496 1489.79 338.647C1507.45 171.194 1481.76 78.1242 1358.51 47.677Z" fill="#192435"/>
<mask id="mask0_2315_104026" style="mask-type:alpha" maskUnits="userSpaceOnUse" x="5" y="11" width="1490" height="638">
<path d="M1358.51 47.677C1118.13 -11.7066 258.737 3.52333 80.4555 86.6481C1.04853 123.672 -3.57674 175.196 14.5029 316.737C49.3067 510.451 84.371 598.231 212.009 620.69C442.155 661.186 1233.85 655.402 1350.83 619.376C1467.8 583.35 1472.73 500.496 1489.79 338.647C1507.45 171.194 1481.76 78.1242 1358.51 47.677Z" fill="#192435"/>
</mask>
<g mask="url(#mask0_2315_104026)">
<path d="M816.8 -222.264C824.36 -230.513 836.291 -238.985 851.664 -247.455C867.023 -255.917 885.752 -264.342 906.849 -272.52C949.042 -288.875 1000.64 -304.214 1053.55 -316.87C1106.46 -329.525 1160.66 -339.49 1208.05 -345.105C1255.47 -350.724 1295.97 -351.971 1321.52 -347.255C1347.45 -342.469 1365.67 -326.012 1379.02 -297.155C1392.39 -268.237 1400.81 -226.985 1407.08 -172.876C1407.47 -169.549 1407.85 -166.276 1408.22 -163.054C1413.76 -115.545 1417.99 -79.2379 1416.25 -50.8716C1414.4 -20.6681 1405.8 0.331516 1384.91 16.162C1379.74 20.0776 1370.3 24.5805 1357.42 29.446C1344.58 34.2987 1328.43 39.4744 1309.92 44.7625C1272.9 55.3381 1226.49 66.3478 1178.38 76.1121C1130.28 85.8761 1080.49 94.3912 1036.69 99.9807C992.875 105.573 955.141 108.226 931.108 106.298C904.787 104.187 885.604 90.1013 868.388 61.3459C851.131 32.5238 835.953 -10.8747 817.661 -71.3258C805.762 -115.793 798.81 -146.195 798.216 -169.192C797.624 -192.084 803.333 -207.567 816.8 -222.264Z" stroke="#27E0F6" stroke-width="2.28207"/>
<path d="M131.5 669.048C138.622 662.319 149.576 655.67 163.537 649.24C177.485 642.816 194.373 636.636 213.315 630.821C251.197 619.191 297.231 609.041 344.242 601.317C391.253 593.594 439.219 588.301 480.963 586.379C522.739 584.456 558.184 585.915 580.207 591.643C602.553 597.455 617.434 612.976 627.274 639.021C637.135 665.12 641.886 701.68 643.961 749.336C644.088 752.266 644.215 755.15 644.34 757.988C646.182 799.832 647.589 831.809 644.288 856.475C640.772 882.74 631.939 900.54 612.689 913.052C607.928 916.146 599.4 919.485 587.849 922.925C576.328 926.355 561.894 929.859 545.392 933.313C512.39 940.22 471.166 946.916 428.533 952.416C385.902 957.917 341.877 962.221 303.274 964.346C264.649 966.473 231.523 966.415 210.653 963.219C187.797 959.719 171.929 946.208 158.702 920.009C145.444 893.749 134.919 854.888 122.749 800.937C115.155 761.349 110.997 734.357 111.926 714.233C112.85 694.201 118.811 681.037 131.5 669.048Z" stroke="#CD4A86" stroke-width="1.9984"/>
</g>
</svg>
